<svg width="24" height="24" viewBox="0 0 24 24" fill="none" xmlns="http://www.w3.org/2000/svg">
<path d="M22.6504 21.174L15.6942 14.2178C16.7736 12.8223 17.3576 11.116 17.3576 9.32136C17.3576 7.17314 16.5192 5.15886 15.0031 3.64011C13.487 2.12136 11.4674 1.28564 9.32185 1.28564C7.17631 1.28564 5.15667 2.12404 3.6406 3.64011C2.12185 5.15618 1.28613 7.17314 1.28613 9.32136C1.28613 11.4669 2.12453 13.4865 3.6406 15.0026C5.15667 16.5214 7.17363 17.3571 9.32185 17.3571C11.1165 17.3571 12.8201 16.7731 14.2156 15.6964L21.1718 22.6499C21.1922 22.6703 21.2165 22.6865 21.2431 22.6976C21.2698 22.7086 21.2983 22.7143 21.3272 22.7143C21.3561 22.7143 21.3846 22.7086 21.4113 22.6976C21.4379 22.6865 21.4622 22.6703 21.4826 22.6499L22.6504 21.4848C22.6708 21.4644 22.687 21.4401 22.6981 21.4135C22.7091 21.3868 22.7148 21.3582 22.7148 21.3294C22.7148 21.3005 22.7091 21.272 22.6981 21.2453C22.687 21.2187 22.6708 21.1944 22.6504 21.174ZM13.5647 13.5642C12.429 14.6973 10.9236 15.3214 9.32185 15.3214C7.72006 15.3214 6.2147 14.6973 5.07899 13.5642C3.94595 12.4285 3.32185 10.9231 3.32185 9.32136C3.32185 7.71957 3.94595 6.21154 5.07899 5.0785C6.2147 3.94547 7.72006 3.32136 9.32185 3.32136C10.9236 3.32136 12.4317 3.94279 13.5647 5.0785C14.6977 6.21422 15.3218 7.71957 15.3218 9.32136C15.3218 10.9231 14.6977 12.4312 13.5647 13.5642Z" fill="#6E7175"/>
</svg>
