<svg width="17" height="16" viewBox="0 0 17 16" fill="none" xmlns="http://www.w3.org/2000/svg">
<g id="Frame">
<path id="Vector" d="M8.59375 0C4.19375 0 0.59375 3.6 0.59375 8C0.59375 12.4 4.19375 16 8.59375 16C12.9937 16 16.5938 12.4 16.5938 8C16.5938 3.6 12.9937 0 8.59375 0ZM8.59375 14C5.29375 14 2.59375 11.3 2.59375 8C2.59375 4.7 5.29375 2 8.59375 2C11.8938 2 14.5938 4.7 14.5938 8C14.5938 11.3 11.8938 14 8.59375 14Z" fill="#62646A"/>
<path id="Vector_2" d="M9.59375 4H7.59375V9H12.5938V7H9.59375V4Z" fill="#62646A"/>
</g>
</svg>
