<svg width="25" height="25" viewBox="0 0 25 25" fill="none" xmlns="http://www.w3.org/2000/svg">
<path d="M21.6615 13.1936C21.6615 12.438 21.6002 11.8867 21.4675 11.3149H12.8395V14.7252H17.9039C17.8018 15.5727 17.2505 16.849 16.0252 17.7067L16.008 17.8209L18.736 19.9342L18.925 19.9531C20.6608 18.35 21.6615 15.9913 21.6615 13.1936Z" fill="#4285F4"/>
<path d="M12.8399 22.1793C15.3211 22.1793 17.404 21.3624 18.9255 19.9533L16.0256 17.7069C15.2496 18.2481 14.2081 18.6259 12.8399 18.6259C10.4098 18.6259 8.34725 17.0228 7.612 14.8071L7.50423 14.8162L4.66759 17.0116L4.63049 17.1147C6.14166 20.1166 9.24573 22.1793 12.8399 22.1793Z" fill="#34A853"/>
<path d="M7.61172 14.8072C7.41772 14.2354 7.30544 13.6227 7.30544 12.9897C7.30544 12.3566 7.41772 11.744 7.60151 11.1722L7.59637 11.0504L4.72419 8.81982L4.63022 8.86452C4.0074 10.1102 3.65002 11.5091 3.65002 12.9897C3.65002 14.4702 4.0074 15.869 4.63022 17.1148L7.61172 14.8072Z" fill="#FBBC05"/>
<path d="M12.8399 7.35309C14.5654 7.35309 15.7294 8.09846 16.3931 8.72135L18.9866 6.18909C17.3938 4.70855 15.321 3.7998 12.8399 3.7998C9.2457 3.7998 6.14165 5.86234 4.63049 8.86425L7.60178 11.1719C8.34722 8.95618 10.4098 7.35309 12.8399 7.35309Z" fill="#EB4335"/>
</svg>
