<svg width="17" height="16" viewBox="0 0 17 16" fill="none" xmlns="http://www.w3.org/2000/svg">
<g id="Frame">
<path id="Vector" d="M4.95332 11.5C6.85332 13.4 10.0533 13.4 11.9533 11.5C12.6533 10.8 13.1533 9.79995 13.3533 8.79995L15.3533 9.09995C15.1533 10.6 14.4533 11.9 13.4533 12.9C10.7533 15.6 6.35332 15.6 3.55332 12.9L1.35332 15.1L0.65332 8.69995L7.05332 9.39995L4.95332 11.5Z" fill="#62646A"/>
<path id="Vector_2" d="M16.2532 7.2999L9.85322 6.5999L11.9532 4.4999C10.0532 2.5999 6.85322 2.5999 4.95322 4.4999C4.25322 5.1999 3.75322 6.1999 3.55322 7.1999L1.55322 6.8999C1.75322 5.3999 2.45322 4.0999 3.45322 3.0999C4.85322 1.6999 6.55322 1.0999 8.35322 1.0999C10.1532 1.0999 11.9532 1.7999 13.2532 3.0999L15.4532 0.899902L16.2532 7.2999Z" fill="#62646A"/>
</g>
</svg>
