<svg width="30" height="31" viewBox="0 0 30 31" fill="none" xmlns="http://www.w3.org/2000/svg">
<g id="bi:arrow-right">
<path id="Vector" fill-rule="evenodd" clip-rule="evenodd" d="M1.875 15.5C1.875 15.2513 1.97377 15.0129 2.14959 14.8371C2.3254 14.6612 2.56386 14.5625 2.8125 14.5625H24.9244L19.0238 8.66371C18.8477 8.48768 18.7488 8.24892 18.7488 7.99996C18.7488 7.75101 18.8477 7.51225 19.0238 7.33621C19.1998 7.16018 19.4385 7.06128 19.6875 7.06128C19.9365 7.06128 20.1752 7.16018 20.3512 7.33621L27.8512 14.8362C27.9386 14.9233 28.0078 15.0268 28.0551 15.1407C28.1023 15.2545 28.1267 15.3766 28.1267 15.5C28.1267 15.6233 28.1023 15.7454 28.0551 15.8593C28.0078 15.9732 27.9386 16.0766 27.8512 16.1637L20.3512 23.6637C20.1752 23.8398 19.9365 23.9386 19.6875 23.9386C19.4385 23.9386 19.1998 23.8398 19.0238 23.6637C18.8477 23.4877 18.7488 23.2489 18.7488 23C18.7488 22.751 18.8477 22.5123 19.0238 22.3362L24.9244 16.4375H2.8125C2.56386 16.4375 2.3254 16.3387 2.14959 16.1629C1.97377 15.9871 1.875 15.7486 1.875 15.5Z" fill="#00A79D"/>
</g>
</svg>
