<svg width="15" height="16" viewBox="0 0 15 16" fill="none" xmlns="http://www.w3.org/2000/svg">
<g clip-path="url(#clip0_9_2196)">
<path d="M14.4647 5.65032C14.4647 5.77309 14.3922 5.90702 14.2471 6.05211L11.2086 9.01528L11.9284 13.2005C11.934 13.2396 11.9368 13.2954 11.9368 13.368C11.9368 13.4851 11.9075 13.5842 11.8489 13.6651C11.7903 13.746 11.7052 13.7865 11.5936 13.7865C11.4876 13.7865 11.376 13.753 11.2588 13.686L7.50042 11.7106L3.74205 13.686C3.61928 13.753 3.50767 13.7865 3.40723 13.7865C3.29004 13.7865 3.20215 13.746 3.14355 13.6651C3.08496 13.5842 3.05566 13.4851 3.05566 13.368C3.05566 13.3345 3.06124 13.2787 3.07241 13.2005L3.79227 9.01528L0.745396 6.05211C0.605887 5.90144 0.536133 5.76751 0.536133 5.65032C0.536133 5.44385 0.692383 5.3155 1.00488 5.26528L5.20689 4.65423L7.09026 0.845633C7.19629 0.616839 7.33301 0.502441 7.50042 0.502441C7.66783 0.502441 7.80455 0.616839 7.91057 0.845633L9.79395 4.65423L13.996 5.26528C14.3085 5.3155 14.4647 5.44385 14.4647 5.65032Z" fill="#FFA41A"/>
</g>
<defs>
<clipPath id="clip0_9_2196">
<rect width="15" height="15" fill="white" transform="translate(0 0.234375)"/>
</clipPath>
</defs>
</svg>
